<svg xmlns="http://www.w3.org/2000/svg" width="56" height="53" viewBox="0 0 56 53">
    <g fill="none" fill-rule="evenodd">
        <g fill="#787886">
            <path fill-rule="nonzero" d="M21.212 0H35.75a4.154 4.154 0 0 1 4.154 4.154v5.438c0 .337-22.846.337-22.846 0V4.154A4.154 4.154 0 0 1 21.212 0zm0 2.7c-.803 0-1.454.65-1.454 1.454v5.438c0 .337 17.446.337 17.446 0V4.154c0-.803-.651-1.454-1.454-1.454H21.212z"/>
            <path d="M35.97 28.542h-5.656v-5.656a1.885 1.885 0 1 0-3.772 0v5.656h-5.656a1.885 1.885 0 1 0 0 3.772h5.656v5.656a1.885 1.885 0 1 0 3.772 0v-5.656h5.656a1.885 1.885 0 1 0 0-3.772"/>
        </g>
        <rect width="53" height="43" x="1.5" y="8.5" stroke="#787886" stroke-width="3" rx="7"/>
    </g>
</svg>
