<svg xmlns="http://www.w3.org/2000/svg" xmlns:xlink="http://www.w3.org/1999/xlink" width="59" height="54" viewBox="0 0 59 54">
    <defs>
        <path id="a" d="M0 0h58.81v53.67H0z"/>
    </defs>
    <g fill="none" fill-rule="evenodd">
        <mask id="b" fill="#fff">
            <use xlink:href="#a"/>
        </mask>
        <path fill="#787886" d="M58.81 42.269a1.53 1.53 0 0 1-1.525 1.533h-8.288v8.335a1.53 1.53 0 0 1-1.525 1.533 1.529 1.529 0 0 1-1.524-1.533v-8.335H37.66a1.53 1.53 0 0 1-1.525-1.533 1.53 1.53 0 0 1 1.525-1.534h8.288v-8.334c0-.847.682-1.534 1.524-1.534a1.53 1.53 0 0 1 1.525 1.534v8.334h8.288a1.53 1.53 0 0 1 1.524 1.534m-20.2-7.352c-3.868-1.894-8.39-2.896-13.076-2.896-10.634 0-19.916 5.172-22.573 12.576a1.526 1.526 0 0 1-1.435 1.014 1.536 1.536 0 0 1-1.434-2.055c3.085-8.597 13.548-14.6 25.442-14.6 5.146 0 10.13 1.107 14.41 3.204a1.538 1.538 0 0 1 .704 2.05 1.522 1.522 0 0 1-2.038.707M25.533 3.067c5.34 0 9.684 4.368 9.684 9.737 0 5.37-4.344 9.738-9.684 9.738-5.339 0-9.683-4.369-9.683-9.738s4.344-9.737 9.683-9.737m0 22.542c7.021 0 12.732-5.744 12.732-12.805C38.265 5.744 32.555 0 25.533 0c-7.02 0-12.732 5.744-12.732 12.804 0 7.06 5.711 12.805 12.732 12.805" mask="url(#b)"/>
    </g>
</svg>
