<svg xmlns="http://www.w3.org/2000/svg" version="1.1" xmlns:xlink="http://www.w3.org/1999/xlink" xmlns:svgjs="http://svgjs.com/svgjs" width="1440" height="560" preserveAspectRatio="none" viewBox="0 0 1440 560"><g mask="url(&quot;#SvgjsMask1008&quot;)" fill="none"><rect width="1440" height="560" x="0" y="0" fill="url(#SvgjsLinearGradient1009)"></rect><path d="M1440 0L901.95 0L1440 6.93z" fill="rgba(255, 255, 255, .1)"></path><path d="M901.95 0L1440 6.93L1440 119.25999999999999L428.24000000000007 0z" fill="rgba(255, 255, 255, .075)"></path><path d="M428.24 0L1440 119.25999999999999L1440 372.62L424.85 0z" fill="rgba(255, 255, 255, .05)"></path><path d="M424.85 0L1440 372.62L1440 376.77L209.8 0z" fill="rgba(255, 255, 255, .025)"></path><path d="M0 560L52.94 560L0 500.15z" fill="rgba(0, 0, 0, .1)"></path><path d="M0 500.15L52.94 560L620.69 560L0 407.28999999999996z" fill="rgba(0, 0, 0, .075)"></path><path d="M0 407.28999999999996L620.69 560L700.85 560L0 328.84z" fill="rgba(0, 0, 0, .05)"></path><path d="M0 328.84L700.85 560L742.89 560L0 259.46999999999997z" fill="rgba(0, 0, 0, .025)"></path></g><defs><mask id="SvgjsMask1008"><rect width="1440" height="560" fill="#ffffff"></rect></mask><linearGradient x1="15.28%" y1="-39.29%" x2="84.72%" y2="139.29%" gradientUnits="userSpaceOnUse" id="SvgjsLinearGradient1009"><stop stop-color="#0e2a47" offset="0"></stop><stop stop-color="rgba(40, 50, 140, 1)" offset="1"></stop></linearGradient></defs></svg>