<svg xmlns="http://www.w3.org/2000/svg" version="1.1" xmlns:xlink="http://www.w3.org/1999/xlink" xmlns:svgjs="http://svgjs.com/svgjs" width="1440" height="560" preserveAspectRatio="none" viewBox="0 0 1440 560"><g mask="url(&quot;#SvgjsMask1009&quot;)" fill="none"><rect width="1440" height="560" x="0" y="0" fill="rgba(40, 50, 140, 1)"></rect><path d="M1440 0L994.62 0L1440 237.85z" fill="rgba(255, 255, 255, .1)"></path><path d="M994.62 0L1440 237.85L1440 399.53L798.98 0z" fill="rgba(255, 255, 255, .075)"></path><path d="M798.98 0L1440 399.53L1440 497.26L445.59000000000003 0z" fill="rgba(255, 255, 255, .05)"></path><path d="M445.59000000000003 0L1440 497.26L1440 504.40999999999997L221.69000000000003 0z" fill="rgba(255, 255, 255, .025)"></path><path d="M0 560L615.71 560L0 527.68z" fill="rgba(0, 0, 0, .1)"></path><path d="M0 527.68L615.71 560L909.73 560L0 292.5899999999999z" fill="rgba(0, 0, 0, .075)"></path><path d="M0 292.59L909.73 560L1132.65 560L0 226.59999999999997z" fill="rgba(0, 0, 0, .05)"></path><path d="M0 226.59999999999997L1132.65 560L1322.0100000000002 560L0 104.45999999999997z" fill="rgba(0, 0, 0, .025)"></path></g><defs><mask id="SvgjsMask1009"><rect width="1440" height="560" fill="#ffffff"></rect></mask></defs></svg>