<svg xmlns="http://www.w3.org/2000/svg" version="1.1" xmlns:xlink="http://www.w3.org/1999/xlink" xmlns:svgjs="http://svgjs.com/svgjs" width="1440" height="560" preserveAspectRatio="none" viewBox="0 0 1440 560"><g mask="url(&quot;#SvgjsMask1008&quot;)" fill="none"><rect width="1440" height="560" x="0" y="0" fill="rgba(40, 50, 140, 1)"></rect><path d="M0 0L52.36 0L0 33.8z" fill="rgba(255, 255, 255, .1)"></path><path d="M0 33.8L52.36 0L170.62 0L0 93.34z" fill="rgba(255, 255, 255, .075)"></path><path d="M0 93.34L170.62 0L332.99 0L0 196.04000000000002z" fill="rgba(255, 255, 255, .05)"></path><path d="M0 196.04000000000002L332.99 0L986.78 0L0 204.91000000000003z" fill="rgba(255, 255, 255, .025)"></path><path d="M1440 560L1083.56 560L1440 515.2z" fill="rgba(0, 0, 0, .1)"></path><path d="M1440 515.2L1083.56 560L634.73 560L1440 400.95000000000005z" fill="rgba(0, 0, 0, .075)"></path><path d="M1440 400.95L634.73 560L238.70000000000005 560L1440 167.6z" fill="rgba(0, 0, 0, .05)"></path><path d="M1440 167.60000000000002L238.70000000000005 560L227.51000000000005 560L1440 106.34000000000003z" fill="rgba(0, 0, 0, .025)"></path></g><defs><mask id="SvgjsMask1008"><rect width="1440" height="560" fill="#ffffff"></rect></mask></defs></svg>