<svg xmlns="http://www.w3.org/2000/svg" version="1.1" xmlns:xlink="http://www.w3.org/1999/xlink" xmlns:svgjs="http://svgjs.com/svgjs" width="1440" height="560" preserveAspectRatio="none" viewBox="0 0 1440 560"><g mask="url(&quot;#SvgjsMask1003&quot;)" fill="none"><rect width="1440" height="560" x="0" y="0" fill="rgba(246, 249, 253, 1)"></rect><path d="M0,551.857C107.942,547.824,222.449,545.577,309.678,481.868C395.139,419.45,437.597,314.558,464.899,212.312C489.3,120.931,474.448,27.195,455.85,-65.541C438.169,-153.705,408.526,-236.194,359.796,-311.765C304.618,-397.337,250.108,-492.277,155.853,-530.787C58.512,-570.558,-60.967,-572.042,-153.07,-521.308C-241.482,-472.608,-255.869,-354.588,-313.925,-272.017C-364.441,-200.17,-440.702,-149.95,-471.898,-67.849C-508.181,27.641,-530.26,131.626,-504.896,230.578C-477.132,338.894,-419.254,445.549,-324.916,505.579C-230.711,565.524,-111.582,556.026,0,551.857" fill="#a4c3eb"></path><path d="M1440 1103.809C1547.108 1104.778 1655.513 1093.2530000000002 1748.205 1039.577 1843.3899999999999 984.4580000000001 1914.04 897.232 1965.0320000000002 799.774 2018.069 698.408 2077.447 582.66 2044.617 473.069 2012.164 364.736 1879.747 328.21799999999996 1799.808 248.22500000000002 1727.315 175.68200000000002 1691.231 65.74200000000002 1597.036 25.18399999999997 1498.944-17.05200000000002 1387.1779999999999 1.6680000000000064 1283.132 25.758000000000038 1174.149 50.990999999999985 1073.022 96.29599999999999 986.046 166.647 885.734 247.78500000000003 747.866 331.212 746 460.218 744.092 592.094 903.244 662.172 977.299 771.309 1035.87 857.627 1050.649 973.1569999999999 1135.359 1034.03 1221.706 1096.08 1333.674 1102.847 1440 1103.809" fill="#ffffff"></path></g><defs><mask id="SvgjsMask1003"><rect width="1440" height="560" fill="#ffffff"></rect></mask></defs></svg>