<svg xmlns="http://www.w3.org/2000/svg" version="1.1" xmlns:xlink="http://www.w3.org/1999/xlink" xmlns:svgjs="http://svgjs.com/svgjs" width="1440" height="250" preserveAspectRatio="none" viewBox="0 0 1440 250"><g mask="url(&quot;#SvgjsMask1003&quot;)" fill="none"><rect width="1440" height="250" x="0" y="0" fill="rgba(246, 249, 253, 1)"></rect><path d="M38 250L288 0L493.5 0L243.5 250z" fill="url(#SvgjsLinearGradient1004)"></path><path d="M268.6 250L518.6 0L590.6 0L340.6 250z" fill="url(#SvgjsLinearGradient1004)"></path><path d="M516.2 250L766.2 0L875.7 0L625.7 250z" fill="url(#SvgjsLinearGradient1004)"></path><path d="M719.8000000000001 250L969.8000000000001 0L1056.8000000000002 0L806.8000000000001 250z" fill="url(#SvgjsLinearGradient1004)"></path><path d="M1405 250L1155 0L802.5 0L1052.5 250z" fill="url(#SvgjsLinearGradient1005)"></path><path d="M1199.4 250L949.4000000000001 0L673.4000000000001 0L923.4000000000001 250z" fill="url(#SvgjsLinearGradient1005)"></path><path d="M925.8 250L675.8 0L438.79999999999995 0L688.8 250z" fill="url(#SvgjsLinearGradient1005)"></path><path d="M707.1999999999999 250L457.19999999999993 0L154.19999999999993 0L404.19999999999993 250z" fill="url(#SvgjsLinearGradient1005)"></path><path d="M1284.3520886916754 250L1440 94.35208869167525L1440 250z" fill="url(#SvgjsLinearGradient1004)"></path><path d="M0 250L155.64791130832475 250L 0 94.35208869167525z" fill="url(#SvgjsLinearGradient1005)"></path></g><defs><mask id="SvgjsMask1003"><rect width="1440" height="250" fill="#ffffff"></rect></mask><linearGradient x1="0%" y1="100%" x2="100%" y2="0%" id="SvgjsLinearGradient1004"><stop stop-color="rgba(15, 70, 185, 0.2)" offset="0"></stop><stop stop-opacity="0" stop-color="rgba(15, 70, 185, 0.2)" offset="0.66"></stop></linearGradient><linearGradient x1="100%" y1="100%" x2="0%" y2="0%" id="SvgjsLinearGradient1005"><stop stop-color="rgba(15, 70, 185, 0.2)" offset="0"></stop><stop stop-opacity="0" stop-color="rgba(15, 70, 185, 0.2)" offset="0.66"></stop></linearGradient></defs></svg>