<svg xmlns="http://www.w3.org/2000/svg" width="88" height="72"><g fill="none" fill-rule="evenodd"><path fill="#CFCFDD" d="M4.608 9.142c.072-.763.16-1.572 1.045-1.997.405-.193.87-.232 1.312-.164 25.737 3.97 38.844 3.14 65.635 8.25l-6.94 53.758a2.11 2.11 0 0 1-2.474 1.722C42.86 66.768 20.175 62.457 0 57.781L4.608 9.142"/><path fill="#AFAFBB" d="M69.509 43.157c1.624-8.993 1.375-18.255 3.638-27.115a.351.351 0 0 1 .324-.276c.15-.043.314-.005.4.183 2.996 6.535 5.334 13.33 6.856 20.348 1.7 7.843 3.966 14.943 7.23 22.313.097.22.035.508-.237.573-3.883.94-9.612 1.321-12.537 4.092-2.74 2.596-5.52 5.043-8.501 7.377-.26.202-.671.088-.676-.276-.127-9.212 1.872-18.198 3.503-27.218"/><path fill="#6F6F7D" d="M67.55 14.188c.006.118-.093-.136.083.1-.12-.109-.126-.122-.017-.04a1.984 1.984 0 0 0-.24-.13c.32.095-.459-.061-.104-.02-.053-.006-.612-.008-.323-.017a2.113 2.113 0 0 0-.258.064c.14-.064.14-.06-.002.012.198-.237.039.02.008.144-.054.221-.036.485-.02.711.042.643.082.064-.474.208 1.771-.46 2.527 2.172.757 2.632-3.495.91-4.183-4.791-1.602-6.109 2.066-1.053 4.918.094 5.04 2.445.091 1.755-2.757 1.75-2.848 0m-11.02-2.242c-.032-.156-.025-.304.037-.125.067.198.2-.094-.009.044.014-.01-.254.083-.337.044-.224.066-.168.031.168-.103.02-.056.006-.041-.043.044.025.142-.437.83-.5 1.029-.204.626.079.158-.374.149 1.89.037 1.897 2.758 0 2.722-1.482-.028-2.677-1.163-2.672-2.547.003-.964.523-2.095 1.112-2.866 1.418-1.855 4.964-1.518 5.456.886.148.721-.217 1.468-1.028 1.674-.718.182-1.66-.225-1.81-.95m-13.58.201c-.008-.011-.241-.301-.088-.142.152.158-.082-.067-.129-.09.173.086.165.148.001.03-.16-.117.328.122.038.029.153.05.354-.006.076.02-.227.022.465-.052.086 0l.213-.077c-.126.063-.131.058-.014-.014.098-.07.112-.078.042-.026a1.05 1.05 0 0 0-.124.104c.05-.122.221-.13.064-.034.074-.156.09-.182.048-.08a1.253 1.253 0 0 0-.056.177c.079-.288.02.31.02.3.067.412.226.633.541.76.85.34 1.081 1.324.629 1.956-.507.707-1.544.855-2.396.513-2.332-.935-3.1-4.038-1.327-5.614 1.598-1.422 4.348-.845 5.4.745 1.071 1.62-1.952 3.065-3.024 1.443m-10.606-2.074c-.143-.152-.154-.173-.053-.097.088.065-.114-.006-.119-.002.133-.114-.177.26-.191.296-.003.006-.026.463-.022.29-.013.54.125.03.01.08.006-.003-.743-.021-.553-.053.893-.148 1.816.22 2.071 1.055.225.734-.276 1.709-1.176 1.856-2.67.442-4.328-2.094-3.494-4.21a3.665 3.665 0 0 1 2.486-2.222c1.19-.313 2.62.011 3.422.872.582.626.683 1.522 0 2.135-.599.537-1.796.629-2.381 0m-8.77-.119c-.03-.04-.396-.43-.244-.276 0 0 .242.102.09.012-.11-.064.12-.025-.007-.002-.16.028.158-.075-.09.032-.084.036-.178.095-.046.007-.076.05-.144.114-.213.173-.026.022-.277.271-.155.138.088-.096-.14.24-.186.27-.129.082.084-.178.047-.16.037-.018-.072-.07.017.088.083.147.096.253.245.418.024.028.408.268.145.168.754.287 1.294.91 1.058 1.692-.195.646-1.103 1.25-1.863.96-2.224-.845-3.44-3.256-1.844-5.103.618-.717 1.472-1.279 2.484-1.4 1.388-.164 2.445.595 3.177 1.594.453.62.134 1.523-.543 1.882-.742.394-1.618.127-2.072-.493M12.487 7.629c.106.154-.017-.003-.18.02-.047.006-.161.047-.28.226-.157.239-.074.506-.183.729-.048.097-.146.136-.178-.044-.125-.076-.087-.08.114-.008.06-.034.128-.034.203 0 1.764.068 1.773 2.818 0 2.75-1.171-.046-2.357-.432-2.747-1.668-.316-1.002-.124-2.257.417-3.147 1.17-1.929 3.907-2.139 5.208-.246.421.611.114 1.526-.493 1.88-.682.4-1.459.12-1.881-.492m48.487 20.066c.647 1.262.902 3.412.23 4.673-.441.83-1.308 1.154-2.091.895-1.24-.412-1.891-1.951-1.912-3.427-.022-1.488.828-3.189 2.047-3.081 0 0 1.243-.004 1.726.94m-15.4-2.2c.646 1.262.902 3.412.23 4.673-.441.83-1.308 1.154-2.091.895-1.24-.412-1.891-1.95-1.912-3.427-.022-1.488.828-3.188 2.047-3.081 0 0 1.243-.005 1.726.94m-15.4-2.2c.646 1.263.902 3.412.23 4.673-.441.83-1.308 1.154-2.091.895-1.24-.412-1.891-1.95-1.912-3.427-.022-1.488.828-3.188 2.047-3.081 0 0 1.243-.005 1.726.94m-15.4-2.2c.647 1.262.902 3.412.23 4.673-.441.83-1.308 1.154-2.091.895-1.24-.412-1.891-1.951-1.912-3.427-.022-1.488.828-3.188 2.047-3.081 0 0 1.243-.005 1.726.94m44 19.8c.646 1.263.902 3.413.23 4.673-.441.83-1.308 1.154-2.091.895-1.24-.412-1.89-1.95-1.912-3.427-.022-1.488.828-3.188 2.047-3.081 0 0 1.243-.004 1.726.94m-18.993-1.452c.566-.935 1.832-1.83 2.871-1.675.684.101 1.201.715 1.32 1.445.186 1.156-.553 2.184-1.478 2.671-.933.492-2.314.328-2.685-.714 0 0-.45-1.026-.028-1.727m-11.807-2.949c.646 1.263.903 3.414.23 4.674-.442.83-1.308 1.154-2.091.894-1.24-.411-1.89-1.95-1.912-3.427-.022-1.488.828-3.188 2.047-3.08 0 0 1.243-.004 1.726.94m-15.4-2.201c.646 1.264.902 3.414.23 4.674-.441.83-1.308 1.154-2.091.895-1.24-.412-1.89-1.95-1.912-3.428-.022-1.488.828-3.188 2.047-3.08 0 0 1.243-.004 1.726.94m44 19.8c.646 1.262.903 3.412.23 4.673-.442.83-1.308 1.154-2.091.895-1.24-.412-1.89-1.951-1.912-3.427-.022-1.488.828-3.189 2.047-3.081 0 0 1.243-.004 1.726.94m-15.4-2.2c.646 1.262.903 3.412.23 4.673-.442.83-1.308 1.154-2.091.895-1.24-.412-1.89-1.951-1.912-3.427-.022-1.488.828-3.189 2.047-3.081 0 0 1.243-.004 1.726.94m-15.4-2.2c.646 1.262.903 3.412.23 4.673-.442.83-1.308 1.154-2.091.895-1.24-.412-1.89-1.951-1.912-3.427-.022-1.488.828-3.189 2.047-3.081 0 0 1.243-.004 1.726.94"/><path stroke="#ED6767" stroke-linecap="round" stroke-width="4" d="M4.583 69.833L70.583 2"/></g></svg>