<svg xmlns="http://www.w3.org/2000/svg" version="1.1" xmlns:xlink="http://www.w3.org/1999/xlink" xmlns:svgjs="http://svgjs.com/svgjs" width="1440" height="560" preserveAspectRatio="none" viewBox="0 0 1440 560"><g mask="url(&quot;#SvgjsMask1009&quot;)" fill="none"><rect width="1440" height="560" x="0" y="0" fill="url(#SvgjsLinearGradient1010)"></rect><path d="M1440 0L1337.97 0L1440 164.09z" fill="rgba(255, 255, 255, .1)"></path><path d="M1337.97 0L1440 164.09L1440 267.23L669.86 0z" fill="rgba(255, 255, 255, .075)"></path><path d="M669.86 0L1440 267.23L1440 332.51L488.51 0z" fill="rgba(255, 255, 255, .05)"></path><path d="M488.51 0L1440 332.51L1440 424.69L183.36 0z" fill="rgba(255, 255, 255, .025)"></path><path d="M0 560L550.45 560L0 396.57z" fill="rgba(0, 0, 0, .1)"></path><path d="M0 396.57L550.45 560L723.0500000000001 560L0 230.98z" fill="rgba(0, 0, 0, .075)"></path><path d="M0 230.98000000000002L723.0500000000001 560L790.1 560L0 161.62z" fill="rgba(0, 0, 0, .05)"></path><path d="M0 161.62L790.1 560L1118.03 560L0 69.71000000000001z" fill="rgba(0, 0, 0, .025)"></path></g><defs><mask id="SvgjsMask1009"><rect width="1440" height="560" fill="#ffffff"></rect></mask><linearGradient x1="15.28%" y1="-39.29%" x2="84.72%" y2="139.29%" gradientUnits="userSpaceOnUse" id="SvgjsLinearGradient1010"><stop stop-color="#0e2a47" offset="0"></stop><stop stop-color="#00459e" offset="1"></stop></linearGradient></defs></svg>